<svg width="24" height="24" viewBox="0 0 24 24" fill="none" xmlns="http://www.w3.org/2000/svg">
<g clip-path="url(#clip0_3550_9215)">
<path d="M17.6057 3.02399C15.4667 1.70027 12.9232 1.18949 10.439 1.5848C7.95484 1.98011 5.6955 3.25518 4.07305 5.17745C2.45061 7.09973 1.57316 9.54114 1.60073 12.0564C1.6283 14.5717 2.55905 16.9933 4.22325 18.8796C5.88744 20.7658 8.17419 21.9911 10.6664 22.3318C13.1587 22.6726 15.6904 22.1062 17.7999 20.7359C19.9093 19.3656 21.456 17.2827 22.1577 14.8672C22.6193 13.2782 22.6952 11.6149 22.395 10.0116M22.395 10.0116C22.2389 9.17754 22.1577 9.08149 22.1577 9.08149L22.395 10.0116Z" stroke="#290852" stroke-width="1.5" stroke-linecap="round" stroke-linejoin="round"/>
<circle cx="12.0001" cy="12" r="6.4" fill="#FF9D5C"/>
<path d="M7.82275 11.7217L11.1776 15.2L20.8228 5.19995" stroke="#290852" stroke-width="1.5" stroke-linecap="round" stroke-linejoin="round"/>
</g>
<defs>
<clipPath id="clip0_3550_9215">
<rect width="24" height="24" fill="white"/>
</clipPath>
</defs>
</svg>
