<svg width="24" height="24" viewBox="0 0 24 24" fill="none" xmlns="http://www.w3.org/2000/svg">
<g clip-path="url(#clip0_3550_9202)">
<path d="M12 22.5C17.799 22.5 22.5 17.799 22.5 12C22.5 6.20101 17.799 1.5 12 1.5C6.20101 1.5 1.5 6.20101 1.5 12C1.5 17.799 6.20101 22.5 12 22.5Z" stroke="#290852" stroke-width="1.5" stroke-linecap="round" stroke-linejoin="round"/>
<path d="M6 14.6715L11.8 17.1572L17.6 14.6715V9.28576L11.8 6.80005L6 9.28576V14.6715Z" fill="#FF9D5C" stroke="#290852" stroke-width="1.5" stroke-linecap="round" stroke-linejoin="round"/>
<path d="M17.6 16.7429V9.28577L11.8 11.7715V18.8143L17.6 16.7429Z" fill="white"/>
<path d="M6 14.6715L11.8 17.1572L17.6 14.6715V9.28576L11.8 6.80005L6 9.28576V14.6715Z" stroke="#290852" stroke-width="1.5" stroke-linecap="round" stroke-linejoin="round"/>
<path d="M6 9.28577L11.8 11.7715L17.6 9.28577" stroke="#290852" stroke-width="1.5" stroke-linecap="round" stroke-linejoin="round"/>
<path d="M8.8999 10.5286L14.6999 8.04285" stroke="#290852" stroke-width="1.5" stroke-linecap="round" stroke-linejoin="round"/>
<path d="M11.8 17.1572L11.8 12.1858" stroke="#290852" stroke-width="1.5" stroke-linecap="round" stroke-linejoin="round"/>
</g>
<defs>
<clipPath id="clip0_3550_9202">
<rect width="24" height="24" fill="white"/>
</clipPath>
</defs>
</svg>
