<svg width="18" height="17" viewBox="0 0 18 17" fill="none" xmlns="http://www.w3.org/2000/svg">
<path d="M6.91406 12.4246H10.3426L13.7712 15.8532V12.4246H15.4855C15.9401 12.4246 16.3762 12.244 16.6977 11.9225C17.0192 11.601 17.1998 11.165 17.1998 10.7103V4.99602C17.1998 4.54137 17.0192 4.10533 16.6977 3.78384C16.3762 3.46235 15.9401 3.28174 15.4855 3.28174H14.9141" stroke="white" stroke-width="1.5" stroke-linecap="round" stroke-linejoin="round"/>
<path d="M12.0573 0.996094H2.91448C2.45982 0.996094 2.02379 1.17671 1.7023 1.4982C1.38081 1.81969 1.2002 2.25572 1.2002 2.71038V8.42467C1.2002 8.87932 1.38081 9.31536 1.7023 9.63685C2.02379 9.95834 2.45982 10.139 2.91448 10.139H4.62877V13.5675L8.05734 10.139H12.0573C12.512 10.139 12.948 9.95834 13.2695 9.63685C13.591 9.31536 13.7716 8.87932 13.7716 8.42467V2.71038C13.7716 2.25572 13.591 1.81969 13.2695 1.4982C12.948 1.17671 12.512 0.996094 12.0573 0.996094V0.996094Z" stroke="white" stroke-width="1.5" stroke-linecap="round" stroke-linejoin="round"/>
</svg>
