<svg width="24" height="24" viewBox="0 0 24 24" fill="none" xmlns="http://www.w3.org/2000/svg">
<g clip-path="url(#clip0_3550_9196)">
<path d="M12 22.5C17.799 22.5 22.5 17.799 22.5 12C22.5 6.20101 17.799 1.5 12 1.5C6.20101 1.5 1.5 6.20101 1.5 12C1.5 17.799 6.20101 22.5 12 22.5Z" stroke="#290852" stroke-width="1.5" stroke-linecap="round" stroke-linejoin="round"/>
<path d="M17 11.1667C17 10.9457 16.9122 10.7337 16.7559 10.5774C16.5996 10.4211 16.3877 10.3333 16.1667 10.3333H13.6667V7.83333C13.6667 7.61232 13.5789 7.40036 13.4226 7.24408C13.2663 7.0878 13.0543 7 12.8333 7H11.1667C10.9457 7 10.7337 7.0878 10.5774 7.24408C10.4211 7.40036 10.3333 7.61232 10.3333 7.83333V10.3333H7.83333C7.61232 10.3333 7.40036 10.4211 7.24408 10.5774C7.0878 10.7337 7 10.9457 7 11.1667V12.8333C7 13.0543 7.0878 13.2663 7.24408 13.4226C7.40036 13.5789 7.61232 13.6667 7.83333 13.6667H10.3333V16.1667C10.3333 16.3877 10.4211 16.5996 10.5774 16.7559C10.7337 16.9122 10.9457 17 11.1667 17H12.8333C13.0543 17 13.2663 16.9122 13.4226 16.7559C13.5789 16.5996 13.6667 16.3877 13.6667 16.1667V13.6667H16.1667C16.3877 13.6667 16.5996 13.5789 16.7559 13.4226C16.9122 13.2663 17 13.0543 17 12.8333V11.1667Z" fill="#FF9D5C" stroke="#290852" stroke-width="1.5" stroke-linecap="round" stroke-linejoin="round"/>
</g>
<defs>
<clipPath id="clip0_3550_9196">
<rect width="24" height="24" fill="white"/>
</clipPath>
</defs>
</svg>
