<svg width="17" height="17" viewBox="0 0 17 17" fill="none" xmlns="http://www.w3.org/2000/svg">
<path d="M10.9812 10.3637L9.37547 11.9476C8.53811 11.4428 7.76022 10.8453 7.05649 10.1664C6.37868 9.4615 5.78127 8.68349 5.27525 7.84667L6.85774 6.24093C6.95358 6.14361 7.01831 6.01997 7.04369 5.88575C7.06906 5.75153 7.05394 5.61279 7.00024 5.48719L5.35025 1.64122C5.28507 1.48957 5.16757 1.36639 5.01917 1.29411C4.87077 1.22184 4.70134 1.20529 4.54176 1.24747L1.51628 2.04772C1.36519 2.08689 1.23187 2.17618 1.13814 2.30098C1.0444 2.42578 0.9958 2.57869 1.00028 2.73471C1.19279 6.25351 2.65586 9.58286 5.11775 12.1044C7.63974 14.5671 10.97 16.0304 14.4897 16.2226C14.6458 16.2279 14.7991 16.1796 14.9242 16.086C15.0492 15.9923 15.1386 15.8587 15.1774 15.7074L15.9769 12.6804C16.0193 12.5209 16.0029 12.3515 15.9308 12.203C15.8586 12.0546 15.7355 11.9371 15.5839 11.8719L11.7372 10.2227C11.6115 10.1682 11.4723 10.1525 11.3377 10.1776C11.203 10.2027 11.0788 10.2675 10.9812 10.3637Z" stroke="white" stroke-width="1.5" stroke-linecap="round" stroke-linejoin="round"/>
</svg>
